Coordinates
version=1
nRows=17
nColumns=38
inDegrees=no

Units are S.I. units (second, meters, Newtons, ...)
If the header above contains a line with 'inDegrees', this indicates whether rotational values are in degrees (yes) or radians (no).

endheader
time	pelvis_tilt	pelvis_list	pelvis_rotation	pelvis_tx	pelvis_ty	pelvis_tz	hip_flexion_r	hip_adduction_r	hip_rotation_r	knee_angle_r	ankle_angle_r	subtalar_angle_r	mtp_angle_r	hip_flexion_l	hip_adduction_l	hip_rotation_l	knee_angle_l	ankle_angle_l	subtalar_angle_l	mtp_angle_l	lumbar_extension	lumbar_bending	lumbar_rotation	arm_flex_r	arm_add_r	arm_rot_r	elbow_flex_r	pro_sup_r	wrist_flex_r	wrist_dev_r	arm_flex_l	arm_add_l	arm_rot_l	elbow_flex_l	pro_sup_l	wrist_flex_l	wrist_dev_l
0.62	1.01301	1.36767	-2.61043	0.715011	1.04504	0.948395	0.182711	-0.35189	-0.04241	1.34517	-0.153663	0	0	0.200082	0.151688	-0.25879	0.456176	0.115657	0	0	-0.105778	-0.180805	0.00822544	-0.0452212	-0.189834	0.175423	0.491606	1.11661	0	0	-0.224473	-0.260561	0.410088	0.651846	0.731823	0	0
0.63	0.993379	1.3723	-2.58372	0.716719	1.0354	0.950606	0.205981	-0.344035	-0.0443772	1.35809	-0.138913	0	0	0.18001	0.150596	-0.249104	0.443675	0.119409	0	0	-0.10869	-0.174288	-0.000684462	-0.0502258	-0.188454	0.176451	0.491368	1.11715	0	0	-0.215164	-0.262096	0.413579	0.649589	0.730543	0	0
0.64	0.979761	1.37688	-2.56222	0.71848	1.0258	0.952573	0.230172	-0.339622	-0.0504076	1.36704	-0.129295	0	0	0.161375	0.149938	-0.239642	0.431107	0.122811	0	0	-0.110216	-0.168515	-0.0108626	-0.0554483	-0.187031	0.180665	0.490493	1.11901	0	0	-0.20725	-0.263996	0.415226	0.650462	0.729699	0	0
0.65	0.962493	1.38211	-2.53708	0.720239	1.01638	0.954538	0.252701	-0.330495	-0.0527337	1.36987	-0.122072	0	0	0.142594	0.148017	-0.229896	0.417786	0.125534	0	0	-0.112231	-0.161578	-0.0213356	-0.0600468	-0.185968	0.18533	0.489941	1.11666	0	0	-0.198985	-0.265051	0.414868	0.651699	0.728939	0	0
0.66	0.945931	1.38668	-2.51192	0.722038	1.00705	0.956328	0.274235	-0.323916	-0.0575708	1.36862	-0.117513	0	0	0.123646	0.146613	-0.219694	0.404001	0.127845	0	0	-0.114696	-0.155301	-0.0330394	-0.0645108	-0.185	0.188235	0.491674	1.10778	0	0	-0.191109	-0.266266	0.412957	0.654904	0.730287	0	0
0.67	0.927079	1.39021	-2.48296	0.723922	0.997868	0.958022	0.293458	-0.320094	-0.0659507	1.36337	-0.113777	0	0	0.103369	0.14603	-0.207548	0.388747	0.128873	0	0	-0.1189	-0.149585	-0.0452044	-0.0679988	-0.177669	0.155944	0.486998	1.15903	0	0	-0.182466	-0.27035	0.418926	0.662312	0.717726	0	0
0.68	0.904212	1.39327	-2.45134	0.725687	0.988693	0.959582	0.311182	-0.316528	-0.07439	1.35433	-0.109167	0	0	0.0818705	0.144868	-0.197389	0.37239	0.129662	0	0	-0.123461	-0.143761	-0.0570905	-0.0716478	-0.174922	0.147838	0.488109	1.16002	0	0	-0.174993	-0.27293	0.418245	0.668897	0.718523	0	0
0.69	0.877229	1.39558	-2.41636	0.727352	0.979527	0.961034	0.326785	-0.31349	-0.0836273	1.34148	-0.102915	0	0	0.0590301	0.143345	-0.18816	0.355223	0.130481	0	0	-0.128967	-0.138002	-0.0685009	-0.0751116	-0.172404	0.142405	0.488617	1.16283	0	0	-0.167425	-0.275146	0.415467	0.67502	0.720629	0	0
0.7	0.845348	1.397	-2.37503	0.729121	0.970549	0.962392	0.339246	-0.311782	-0.0955459	1.32491	-0.0932067	0	0	0.0354175	0.141674	-0.176897	0.338405	0.131236	0	0	-0.13638	-0.132029	-0.0815528	-0.0779132	-0.169833	0.136864	0.489738	1.1636	0	0	-0.159068	-0.277174	0.410842	0.68176	0.725427	0	0
0.71	0.816563	1.39834	-2.3392	0.73065	0.961502	0.963446	0.352067	-0.309935	-0.105659	1.3055	-0.0805358	0	0	0.0132598	0.139406	-0.169286	0.323461	0.133334	0	0	-0.14257	-0.126616	-0.0919145	-0.0810482	-0.167625	0.132755	0.490818	1.16247	0	0	-0.150488	-0.279203	0.407563	0.687668	0.730586	0	0
0.72	0.788509	1.39939	-2.30492	0.732029	0.952442	0.964279	0.363945	-0.308186	-0.115754	1.28297	-0.0659713	0	0	-0.00820086	0.136945	-0.162167	0.309662	0.136133	0	0	-0.14865	-0.121506	-0.101447	-0.0840865	-0.165044	0.128089	0.491109	1.15907	0	0	-0.141584	-0.281347	0.405538	0.692895	0.735873	0	0
0.73	0.759036	1.39993	-2.26952	0.733309	0.943491	0.964965	0.374135	-0.306305	-0.126068	1.25718	-0.0512927	0	0	-0.0289707	0.134218	-0.154342	0.297464	0.139389	0	0	-0.155532	-0.116459	-0.110979	-0.0862105	-0.162362	0.121577	0.494002	1.15229	0	0	-0.132146	-0.283722	0.404503	0.697907	0.740339	0	0
0.74	0.732551	1.40051	-2.23835	0.734424	0.934598	0.96543	0.384017	-0.303852	-0.135142	1.22851	-0.0382165	0	0	-0.0478422	0.1313	-0.147319	0.287651	0.143668	0	0	-0.161782	-0.11193	-0.119157	-0.0879175	-0.160117	0.120537	0.49411	1.14655	0	0	-0.122576	-0.286409	0.404047	0.703338	0.743625	0	0
0.75	0.706274	1.40003	-2.20821	0.735454	0.925689	0.965834	0.391476	-0.301798	-0.144265	1.19628	-0.0261858	0	0	-0.0681813	0.129153	-0.138786	0.276265	0.14719	0	0	-0.169041	-0.107968	-0.125986	-0.0883104	-0.154099	0.100928	0.486284	1.18451	0	0	-0.112218	-0.28567	0.392669	0.703906	0.782304	0	0
0.76	0.684501	1.39953	-2.18357	0.736372	0.916828	0.966006	0.398522	-0.299758	-0.152844	1.16128	-0.0149285	0	0	-0.0867845	0.127071	-0.132259	0.267096	0.151892	0	0	-0.175586	-0.104697	-0.131738	-0.0898866	-0.151177	0.0950837	0.487046	1.18028	0	0	-0.101357	-0.286878	0.389794	0.706718	0.795728	0	0
0.77	0.669916	1.39935	-2.1672	0.737152	0.908001	0.965918	0.406059	-0.297858	-0.160523	1.12415	-0.00469541	0	0	-0.103346	0.125456	-0.127841	0.259682	0.157729	0	0	-0.18089	-0.102443	-0.135977	-0.0918448	-0.149252	0.0968488	0.487435	1.17131	0	0	-0.0898071	-0.291727	0.400841	0.713639	0.766811	0	0
0.78	0.652242	1.39826	-2.14915	0.737866	0.899073	0.965866	0.410724	-0.295321	-0.168288	1.08354	0.00579312	0	0	-0.122809	0.124356	-0.122697	0.248736	0.162023	0	0	-0.187265	-0.099964	-0.139144	-0.0926932	-0.146625	0.0964726	0.483201	1.17659	0	0	-0.0784357	-0.289239	0.388847	0.710496	0.817259	0	0
